<mxfile host="app.diagrams.net" agent="Mozilla/5.0 (Windows NT 10.0; Win64; x64) AppleWebKit/537.36 (KHTML, like Gecko) Chrome/131.0.0.0 Safari/537.36" version="25.0.3">
  <diagram name="Page-1" id="w6-H7i2xiHxeXn8dpbb_">
    <mxGraphModel dx="1433" dy="619" grid="1" gridSize="10" guides="1" tooltips="1" connect="1" arrows="1" fold="1" page="1" pageScale="1" pageWidth="850" pageHeight="1100" math="0" shadow="0">
      <root>
        <mxCell id="0" />
        <mxCell id="1" parent="0" />
        <mxCell id="oy-WQ3GdUzc_D1OLDRez-1" value="User&lt;div&gt;&lt;br&gt;&lt;/div&gt;" style="shape=umlActor;verticalLabelPosition=bottom;verticalAlign=top;html=1;" vertex="1" parent="1">
          <mxGeometry x="70" y="60" width="30" height="60" as="geometry" />
        </mxCell>
        <mxCell id="oy-WQ3GdUzc_D1OLDRez-2" value="Signup" style="shape=umlLifeline;perimeter=lifelinePerimeter;whiteSpace=wrap;html=1;container=1;dropTarget=0;collapsible=0;recursiveResize=0;outlineConnect=0;portConstraint=eastwest;newEdgeStyle={&quot;curved&quot;:0,&quot;rounded&quot;:0};" vertex="1" parent="1">
          <mxGeometry x="310" y="60" width="170" height="510" as="geometry" />
        </mxCell>
        <mxCell id="oy-WQ3GdUzc_D1OLDRez-3" value="" style="html=1;points=[[0,0,0,0,5],[0,1,0,0,-5],[1,0,0,0,5],[1,1,0,0,-5]];perimeter=orthogonalPerimeter;outlineConnect=0;targetShapes=umlLifeline;portConstraint=eastwest;newEdgeStyle={&quot;curved&quot;:0,&quot;rounded&quot;:0};" vertex="1" parent="oy-WQ3GdUzc_D1OLDRez-2">
          <mxGeometry x="70" y="120" width="30" height="110" as="geometry" />
        </mxCell>
        <mxCell id="oy-WQ3GdUzc_D1OLDRez-4" value="" style="html=1;points=[[0,0,0,0,5],[0,1,0,0,-5],[1,0,0,0,5],[1,1,0,0,-5]];perimeter=orthogonalPerimeter;outlineConnect=0;targetShapes=umlLifeline;portConstraint=eastwest;newEdgeStyle={&quot;curved&quot;:0,&quot;rounded&quot;:0};" vertex="1" parent="oy-WQ3GdUzc_D1OLDRez-2">
          <mxGeometry x="70" y="300" width="30" height="110" as="geometry" />
        </mxCell>
        <mxCell id="oy-WQ3GdUzc_D1OLDRez-5" value="" style="html=1;points=[[0,0,0,0,5],[0,1,0,0,-5],[1,0,0,0,5],[1,1,0,0,-5]];perimeter=orthogonalPerimeter;outlineConnect=0;targetShapes=umlLifeline;portConstraint=eastwest;newEdgeStyle={&quot;curved&quot;:0,&quot;rounded&quot;:0};" vertex="1" parent="oy-WQ3GdUzc_D1OLDRez-2">
          <mxGeometry x="70" y="435" width="30" height="55" as="geometry" />
        </mxCell>
        <mxCell id="oy-WQ3GdUzc_D1OLDRez-6" value="Validation" style="shape=umlLifeline;perimeter=lifelinePerimeter;whiteSpace=wrap;html=1;container=1;dropTarget=0;collapsible=0;recursiveResize=0;outlineConnect=0;portConstraint=eastwest;newEdgeStyle={&quot;curved&quot;:0,&quot;rounded&quot;:0};" vertex="1" parent="1">
          <mxGeometry x="620" y="60" width="150" height="510" as="geometry" />
        </mxCell>
        <mxCell id="oy-WQ3GdUzc_D1OLDRez-7" value="" style="html=1;points=[[0,0,0,0,5],[0,1,0,0,-5],[1,0,0,0,5],[1,1,0,0,-5]];perimeter=orthogonalPerimeter;outlineConnect=0;targetShapes=umlLifeline;portConstraint=eastwest;newEdgeStyle={&quot;curved&quot;:0,&quot;rounded&quot;:0};" vertex="1" parent="oy-WQ3GdUzc_D1OLDRez-6">
          <mxGeometry x="60" y="180" width="30" height="200" as="geometry" />
        </mxCell>
        <mxCell id="oy-WQ3GdUzc_D1OLDRez-8" value="" style="endArrow=none;dashed=1;html=1;rounded=0;" edge="1" parent="1" source="oy-WQ3GdUzc_D1OLDRez-10">
          <mxGeometry width="50" height="50" relative="1" as="geometry">
            <mxPoint x="85" y="360" as="sourcePoint" />
            <mxPoint x="85" y="140" as="targetPoint" />
          </mxGeometry>
        </mxCell>
        <mxCell id="oy-WQ3GdUzc_D1OLDRez-9" value="" style="endArrow=none;dashed=1;html=1;rounded=0;" edge="1" parent="1" source="oy-WQ3GdUzc_D1OLDRez-28" target="oy-WQ3GdUzc_D1OLDRez-10">
          <mxGeometry width="50" height="50" relative="1" as="geometry">
            <mxPoint x="80" y="600" as="sourcePoint" />
            <mxPoint x="85" y="140" as="targetPoint" />
          </mxGeometry>
        </mxCell>
        <mxCell id="oy-WQ3GdUzc_D1OLDRez-10" value="" style="html=1;points=[[0,0,0,0,5],[0,1,0,0,-5],[1,0,0,0,5],[1,1,0,0,-5]];perimeter=orthogonalPerimeter;outlineConnect=0;targetShapes=umlLifeline;portConstraint=eastwest;newEdgeStyle={&quot;curved&quot;:0,&quot;rounded&quot;:0};" vertex="1" parent="1">
          <mxGeometry x="80" y="190" width="10" height="100" as="geometry" />
        </mxCell>
        <mxCell id="oy-WQ3GdUzc_D1OLDRez-11" value="" style="endArrow=classic;html=1;rounded=0;" edge="1" parent="1">
          <mxGeometry width="50" height="50" relative="1" as="geometry">
            <mxPoint x="90" y="210" as="sourcePoint" />
            <mxPoint x="380" y="210" as="targetPoint" />
          </mxGeometry>
        </mxCell>
        <mxCell id="oy-WQ3GdUzc_D1OLDRez-12" value="Enter details (username, email, password, etc.)" style="text;html=1;align=center;verticalAlign=middle;resizable=0;points=[];autosize=1;strokeColor=none;fillColor=none;" vertex="1" parent="1">
          <mxGeometry x="100" y="185" width="270" height="30" as="geometry" />
        </mxCell>
        <mxCell id="oy-WQ3GdUzc_D1OLDRez-17" value="" style="endArrow=classic;html=1;rounded=0;" edge="1" parent="1">
          <mxGeometry width="50" height="50" relative="1" as="geometry">
            <mxPoint x="410" y="275" as="sourcePoint" />
            <mxPoint x="680" y="275" as="targetPoint" />
          </mxGeometry>
        </mxCell>
        <mxCell id="oy-WQ3GdUzc_D1OLDRez-18" value="Validate input" style="text;html=1;align=center;verticalAlign=middle;resizable=0;points=[];autosize=1;strokeColor=none;fillColor=none;" vertex="1" parent="1">
          <mxGeometry x="490" y="248" width="100" height="30" as="geometry" />
        </mxCell>
        <mxCell id="oy-WQ3GdUzc_D1OLDRez-20" value="&lt;font style=&quot;font-size: 14px;&quot;&gt;alt&lt;/font&gt;" style="shape=umlFrame;whiteSpace=wrap;html=1;pointerEvents=0;" vertex="1" parent="1">
          <mxGeometry x="40" y="370" width="1080" height="200" as="geometry" />
        </mxCell>
        <mxCell id="oy-WQ3GdUzc_D1OLDRez-21" value="Username/ Email unique" style="text;html=1;align=center;verticalAlign=middle;resizable=0;points=[];autosize=1;strokeColor=none;fillColor=none;" vertex="1" parent="1">
          <mxGeometry x="100" y="370" width="150" height="30" as="geometry" />
        </mxCell>
        <mxCell id="oy-WQ3GdUzc_D1OLDRez-22" value="" style="endArrow=none;dashed=1;html=1;rounded=0;exitX=0.002;exitY=0.549;exitDx=0;exitDy=0;exitPerimeter=0;entryX=1;entryY=0.548;entryDx=0;entryDy=0;entryPerimeter=0;" edge="1" parent="1" source="oy-WQ3GdUzc_D1OLDRez-20" target="oy-WQ3GdUzc_D1OLDRez-20">
          <mxGeometry width="50" height="50" relative="1" as="geometry">
            <mxPoint x="270" y="495" as="sourcePoint" />
            <mxPoint x="680" y="480" as="targetPoint" />
          </mxGeometry>
        </mxCell>
        <mxCell id="oy-WQ3GdUzc_D1OLDRez-26" value="&quot;Username/email already taken&quot; error" style="endArrow=open;endSize=12;dashed=1;html=1;rounded=0;" edge="1" parent="1" target="oy-WQ3GdUzc_D1OLDRez-28">
          <mxGeometry x="0.0465" y="-14" width="160" relative="1" as="geometry">
            <mxPoint x="380" y="530" as="sourcePoint" />
            <mxPoint x="130" y="530" as="targetPoint" />
            <mxPoint as="offset" />
          </mxGeometry>
        </mxCell>
        <mxCell id="oy-WQ3GdUzc_D1OLDRez-27" value="" style="endArrow=none;dashed=1;html=1;rounded=0;" edge="1" parent="1" target="oy-WQ3GdUzc_D1OLDRez-28">
          <mxGeometry width="50" height="50" relative="1" as="geometry">
            <mxPoint x="80" y="600" as="sourcePoint" />
            <mxPoint x="80" y="290" as="targetPoint" />
          </mxGeometry>
        </mxCell>
        <mxCell id="oy-WQ3GdUzc_D1OLDRez-28" value="" style="html=1;points=[[0,0,0,0,5],[0,1,0,0,-5],[1,0,0,0,5],[1,1,0,0,-5]];perimeter=orthogonalPerimeter;outlineConnect=0;targetShapes=umlLifeline;portConstraint=eastwest;newEdgeStyle={&quot;curved&quot;:0,&quot;rounded&quot;:0};" vertex="1" parent="1">
          <mxGeometry x="70" y="495" width="30" height="55" as="geometry" />
        </mxCell>
        <mxCell id="oy-WQ3GdUzc_D1OLDRez-29" value="UserDatabase" style="shape=umlLifeline;perimeter=lifelinePerimeter;whiteSpace=wrap;html=1;container=1;dropTarget=0;collapsible=0;recursiveResize=0;outlineConnect=0;portConstraint=eastwest;newEdgeStyle={&quot;curved&quot;:0,&quot;rounded&quot;:0};" vertex="1" parent="1">
          <mxGeometry x="900" y="60" width="150" height="510" as="geometry" />
        </mxCell>
        <mxCell id="oy-WQ3GdUzc_D1OLDRez-30" value="" style="html=1;points=[[0,0,0,0,5],[0,1,0,0,-5],[1,0,0,0,5],[1,1,0,0,-5]];perimeter=orthogonalPerimeter;outlineConnect=0;targetShapes=umlLifeline;portConstraint=eastwest;newEdgeStyle={&quot;curved&quot;:0,&quot;rounded&quot;:0};" vertex="1" parent="oy-WQ3GdUzc_D1OLDRez-29">
          <mxGeometry x="60" y="180" width="30" height="290" as="geometry" />
        </mxCell>
        <mxCell id="oy-WQ3GdUzc_D1OLDRez-31" value="" style="endArrow=classic;html=1;rounded=0;" edge="1" parent="1">
          <mxGeometry width="50" height="50" relative="1" as="geometry">
            <mxPoint x="710" y="314.44" as="sourcePoint" />
            <mxPoint x="960" y="314.44" as="targetPoint" />
          </mxGeometry>
        </mxCell>
        <mxCell id="oy-WQ3GdUzc_D1OLDRez-32" value="Check if username/email exists" style="text;html=1;align=center;verticalAlign=middle;resizable=0;points=[];autosize=1;strokeColor=none;fillColor=none;" vertex="1" parent="1">
          <mxGeometry x="740" y="290" width="190" height="30" as="geometry" />
        </mxCell>
        <mxCell id="oy-WQ3GdUzc_D1OLDRez-33" value="" style="endArrow=classic;html=1;rounded=0;" edge="1" parent="1">
          <mxGeometry width="50" height="50" relative="1" as="geometry">
            <mxPoint x="710" y="430" as="sourcePoint" />
            <mxPoint x="960" y="430" as="targetPoint" />
          </mxGeometry>
        </mxCell>
        <mxCell id="oy-WQ3GdUzc_D1OLDRez-34" value="Add user to database" style="text;html=1;align=center;verticalAlign=middle;resizable=0;points=[];autosize=1;strokeColor=none;fillColor=none;" vertex="1" parent="1">
          <mxGeometry x="760" y="410" width="140" height="30" as="geometry" />
        </mxCell>
        <mxCell id="oy-WQ3GdUzc_D1OLDRez-35" value="Username/email available" style="endArrow=open;endSize=12;dashed=1;html=1;rounded=0;" edge="1" parent="1">
          <mxGeometry x="0.0465" y="-14" width="160" relative="1" as="geometry">
            <mxPoint x="958" y="400" as="sourcePoint" />
            <mxPoint x="710" y="400" as="targetPoint" />
            <mxPoint as="offset" />
          </mxGeometry>
        </mxCell>
        <mxCell id="oy-WQ3GdUzc_D1OLDRez-37" value="Username/email exists" style="endArrow=open;endSize=12;dashed=1;html=1;rounded=0;" edge="1" parent="1">
          <mxGeometry x="0.2" y="-10" width="160" relative="1" as="geometry">
            <mxPoint x="960" y="510" as="sourcePoint" />
            <mxPoint x="710" y="510" as="targetPoint" />
            <mxPoint as="offset" />
          </mxGeometry>
        </mxCell>
        <mxCell id="oy-WQ3GdUzc_D1OLDRez-38" value="" style="html=1;points=[[0,0,0,0,5],[0,1,0,0,-5],[1,0,0,0,5],[1,1,0,0,-5]];perimeter=orthogonalPerimeter;outlineConnect=0;targetShapes=umlLifeline;portConstraint=eastwest;newEdgeStyle={&quot;curved&quot;:0,&quot;rounded&quot;:0};" vertex="1" parent="1">
          <mxGeometry x="70" y="410" width="30" height="55" as="geometry" />
        </mxCell>
        <mxCell id="oy-WQ3GdUzc_D1OLDRez-39" value="Signup success" style="endArrow=open;endSize=12;dashed=1;html=1;rounded=0;" edge="1" parent="1">
          <mxGeometry x="0.0465" y="-14" width="160" relative="1" as="geometry">
            <mxPoint x="380" y="450" as="sourcePoint" />
            <mxPoint x="100" y="450" as="targetPoint" />
            <mxPoint as="offset" />
          </mxGeometry>
        </mxCell>
        <mxCell id="oy-WQ3GdUzc_D1OLDRez-40" value="Success" style="endArrow=open;endSize=12;dashed=1;html=1;rounded=0;entryX=1.081;entryY=0.397;entryDx=0;entryDy=0;entryPerimeter=0;" edge="1" parent="1">
          <mxGeometry x="0.2" y="-10" width="160" relative="1" as="geometry">
            <mxPoint x="960" y="460" as="sourcePoint" />
            <mxPoint x="410" y="460" as="targetPoint" />
            <mxPoint as="offset" />
          </mxGeometry>
        </mxCell>
        <mxCell id="oy-WQ3GdUzc_D1OLDRez-41" value="" style="html=1;points=[[0,0,0,0,5],[0,1,0,0,-5],[1,0,0,0,5],[1,1,0,0,-5]];perimeter=orthogonalPerimeter;outlineConnect=0;targetShapes=umlLifeline;portConstraint=eastwest;newEdgeStyle={&quot;curved&quot;:0,&quot;rounded&quot;:0};" vertex="1" parent="1">
          <mxGeometry x="680" y="495" width="30" height="55" as="geometry" />
        </mxCell>
      </root>
    </mxGraphModel>
  </diagram>
</mxfile>
